<svg width="74" height="76" viewBox="0 0 74 76" fill="none" xmlns="http://www.w3.org/2000/svg">
<path id="Vector" d="M71.523 42.484C69.8589 41.4879 67.7808 41.7027 66.355 43.0192C62.4019 46.6715 57.2573 48.6833 51.871 48.6833C40.094 48.6833 30.516 39.1013 30.516 27.3283C30.516 19.8166 34.5355 12.7733 41.008 8.93726C42.676 7.94898 43.4768 6.02316 43.0002 4.14036C42.5236 2.26146 40.9025 0.948956 38.965 0.874756C38.4845 0.855225 37.9962 0.847412 37.5158 0.847412C17.0318 0.847412 0.36377 17.5154 0.36377 37.9994C0.36377 58.4834 17.0318 75.1514 37.5158 75.1514C54.4808 75.1514 69.2738 63.6904 73.4958 47.2844C73.9801 45.4055 73.1871 43.4801 71.523 42.484ZM37.515 69.242C20.288 69.242 6.27297 55.226 6.27297 38C6.27297 22.062 18.269 8.871 33.707 6.988C31.5742 8.8942 29.7382 11.1325 28.2929 13.6169C25.8788 17.7614 24.6015 22.5036 24.6015 27.3239C24.6015 42.3589 36.8355 54.5939 51.8715 54.5939C56.9574 54.5939 61.8715 53.1916 66.1295 50.5744C61.2193 61.7734 50.0745 69.2424 37.5165 69.2424L37.515 69.242Z" fill="#433141"/>
</svg>
