<svg width="84" height="84" viewBox="0 0 84 84" fill="none" xmlns="http://www.w3.org/2000/svg">
<path d="M42 19.707C36.0859 19.707 30.418 22.0586 26.238 26.2382C22.0583 30.4179 19.7068 36.0859 19.7068 42.0002C19.7068 47.9145 22.0584 53.5822 26.238 57.7622C30.4177 61.9419 36.0857 64.2934 42 64.2934C47.9143 64.2934 53.582 61.9418 57.762 57.7622C61.9417 53.5825 64.2932 47.9145 64.2932 42.0002C64.2815 36.09 61.9299 30.4262 57.7502 26.2502C53.5744 22.0705 47.9102 19.7188 42 19.707ZM42 58.668C37.6602 58.6133 33.5156 56.8438 30.473 53.75C27.43 50.6523 25.7347 46.4805 25.7503 42.141C25.7699 37.8012 27.5042 33.641 30.5706 30.571C33.6409 27.5046 37.8011 25.7702 42.1406 25.7507C46.4804 25.7351 50.6523 27.4304 53.7496 30.4734C56.8434 33.5164 58.6129 37.6609 58.6676 42.0004C58.6676 46.4223 56.9098 50.6606 53.7848 53.7854C50.6598 56.9102 46.4217 58.668 42 58.668ZM44.918 72.375V80.75C44.918 82.3594 43.6094 83.668 42 83.668C40.3906 83.668 39.082 82.3594 39.082 80.75V72.168C39.082 70.5547 40.3906 69.25 42 69.25C43.6094 69.25 44.918 70.5547 44.918 72.168V72.375ZM22.75 61.25C23.8945 62.4023 23.8945 64.2617 22.75 65.418L16.668 71.4571C16.1172 72.0196 15.3672 72.3321 14.5821 72.3321C13.8126 72.3321 13.0743 72.0157 12.543 71.4571C11.9727 70.9141 11.6485 70.1641 11.6485 69.3751C11.6485 68.5861 11.9727 67.836 12.543 67.2931L18.625 61.1681C19.7969 60.0743 21.625 60.1094 22.75 61.25ZM11.832 44.918H3.25003C1.64063 44.918 0.332031 43.6094 0.332031 42C0.332031 40.3906 1.64063 39.082 3.25003 39.082H11.832C13.4453 39.082 14.75 40.3906 14.75 42C14.75 43.6094 13.4453 44.918 11.832 44.918ZM12.5391 16.668H12.543C11.3907 15.5157 11.3907 13.6524 12.543 12.5C13.6914 11.3477 15.5586 11.3477 16.7071 12.5L22.7501 18.625C23.8946 19.7773 23.8946 21.6367 22.7501 22.793C22.1837 23.3203 21.4415 23.6172 20.6681 23.625C19.9024 23.6211 19.172 23.3203 18.6251 22.793L12.5391 16.668ZM39.0821 11.8321V3.2501C39.0821 1.6407 40.3907 0.3321 42.0001 0.3321C43.6095 0.3321 44.9181 1.6407 44.9181 3.2501V11.8321C44.9181 13.4454 43.6095 14.7501 42.0001 14.7501C40.3907 14.7501 39.0821 13.4454 39.0821 11.8321ZM61.2501 22.7501C60.1056 21.5978 60.1056 19.7384 61.2501 18.5821L67.3321 12.5001C68.4844 11.3478 70.3477 11.3478 71.5001 12.5001C72.6525 13.6524 72.6524 15.5157 71.5001 16.6681L65.3751 22.7501C64.8282 23.2813 64.0978 23.5782 63.3321 23.5821C62.5586 23.5782 61.8165 23.2813 61.2501 22.7501ZM83.6681 42.0001C83.6681 43.6095 82.3595 44.9181 80.7501 44.9181H72.1681C70.5548 44.9181 69.2501 43.6095 69.2501 42.0001C69.2501 40.3907 70.5548 39.0821 72.1681 39.0821H80.7501C81.5235 39.0821 82.2657 39.3907 82.8126 39.9376C83.3595 40.4844 83.6681 41.2267 83.6681 42.0001ZM71.4611 67.3321H71.4572C72.6017 68.4883 72.6017 70.3477 71.4572 71.5001C70.9298 72.0626 70.1877 72.379 69.4181 72.3751C68.6329 72.3751 67.8829 72.0587 67.3322 71.5001L61.2502 65.4181C60.0979 64.2658 60.0979 62.4025 61.2502 61.2501C62.4025 60.0977 64.2658 60.0978 65.4182 61.2501L71.4611 67.3321Z" fill="#705778"/>
</svg>
